<svg xmlns="http://www.w3.org/2000/svg" xmlns:xlink="http://www.w3.org/1999/xlink" viewBox="0 0 605.97 321.68"><defs><style>.cls-1{fill:url(#未命名的渐变_24);}.cls-2{fill:url(#未命名的渐变_24-2);}.cls-3{fill:url(#未命名的渐变_24-3);}.cls-4{fill:url(#未命名的渐变_24-4);}.cls-5{font-size:29.41px;font-family:AdobeSongStd-Light-GBpc-EUC-H, Adobe Song Std;}</style><linearGradient id="未命名的渐变_24" x1="348.09" y1="365.12" x2="654.95" y2="365.12" gradientTransform="translate(-30.08 97.65) rotate(-8.71)" gradientUnits="userSpaceOnUse"><stop offset="0" stop-color="#333"/><stop offset="0.24" stop-color="#666"/><stop offset="0.75" stop-color="#666"/><stop offset="1" stop-color="#1a1a1a"/></linearGradient><linearGradient id="未命名的渐变_24-2" x1="469.89" y1="413.63" x2="938.09" y2="413.63" xlink:href="#未命名的渐变_24"/><linearGradient id="未命名的渐变_24-3" x1="537.62" y1="314.19" x2="559.19" y2="314.19" xlink:href="#未命名的渐变_24"/><linearGradient id="未命名的渐变_24-4" x1="940.38" y1="437.14" x2="958.17" y2="437.14" xlink:href="#未命名的渐变_24"/></defs><title>portfolio_logo</title><g id="logo_black"><path class="cls-1" d="M405,300.64c7.43-1,14.29-3.81,21.28-6.12a214.3,214.3,0,0,0,22-8.25c7-3.19,14.84-4.54,21.32-8.42a32.6,32.6,0,0,1,11.87-4.38c3.73-.63,7.24-2.57,10.81-4,10.52-4.15,21-8.46,31.89-11.72,9.51-2.84,18.87-6.1,28.33-9.09,10-3.17,20.14-6.17,30.18-9.36,10.37-3.3,20.73-6.63,31-10.13,8.66-2.95,17.59-5.26,25.78-9.36,3.7-1.85,6.67.17,9.07,2.17,2.06,1.71,4.65,3.65,3.47,6.8a9,9,0,0,1-8.26,6.07c-10.74.55-20.75,3.87-30.92,6.65-6.78,1.86-13.61,3.58-20.37,5.52-7.57,2.17-15.07,4.55-22.62,6.76-10.58,3.1-21.33,5.77-31.74,9.29s-21,7.1-31.25,11.39a125.94,125.94,0,0,1-16.61,6.11c-4.56,1.2-5,4.18-5.83,7.16-1.41,5.27-3,10.57-3.58,15.91-.37,3.49-1,7-1.54,10.44-.65,3.89-.08,7.83-1.47,11.71-1.05,2.93-.45,6.15-.68,9.21-.34,4.44-.66,9-1.07,13.41s-.16,8.69-1.11,13.07c-.79,3.62-.4,7.41-.93,11.16a50.25,50.25,0,0,0-.47,8.23c.13,4.73-1,9.37-.8,14.09s-.68,9.53-1.1,14.3a4.92,4.92,0,0,0-.18,1.28c1,5.11-.2,10.32-.62,15.37-.38,4.52.83,9.19-1.1,13.67a4.81,4.81,0,0,0-.09,1.93c.09,6.28-.73,12.56-.9,18.8-.13,4.79-.68,9.6-.71,14.4,0,5-.29,10-.49,15a54.36,54.36,0,0,0-.05,7.72c.77,7.54-.41,14.94-2.33,22.39-1,3.7-1.67,7.48-3.91,10.68-3.19,4.56-8.42,7-14.09,8.18-9.2,2-18.38,3.2-27.69.66-5.33-1.45-9.07-4.4-12.57-7.89-4.43-4.41-7.49-9.67-10.22-14.92-1.54-3-3-6.24-4.51-9.22-2-3.83-2.25-8.27-5.23-11.67a1.65,1.65,0,0,1-.48-.85c-.35-5.78-4.6-10.48-5-16.27-.33-4.29-2.62-8.35-2.92-12.5-.45-6.42-1.52-12.8-.42-19.47a64.15,64.15,0,0,1,9.64-24.37,101.6,101.6,0,0,1,22.09-24.72c4-3.22,9.25-3.47,14.14-2.35,4.11.94,4.68,4.31,2.11,8.18a32.22,32.22,0,0,1-11.73,10.61c-6.68,3.56-10,9.12-13,14.89-3.47,6.5-6.23,13.36-7.1,20.37-.53,4.26-1.65,8.59-.9,13.09.83,5-.69,10.27.55,15.39,1.66,6.9,3.58,13.8,5.82,20.46,2.75,8.16,6.14,16.4,11.94,23.41,5.18,6.26,12.26,9.38,21.27,9.26a45.38,45.38,0,0,0,15-2.32c2.59-.93,4.4-2.73,4.33-4.81-.13-3.78,1-7.42,1.31-11.14.32-4,.17-8.08,1.29-12,.92-3.26.46-6.63.69-9.88.31-4.33.73-8.76,1-13.11.3-4.74-.2-9.58,1.17-14.3.12-.42.39-.89.28-1.26-1.47-5,.28-10.07.52-15,.21-4.37-.34-8.89,1-13.35,1.07-3.61.39-7.47.53-11.17.2-5.11.48-10.31.82-15.38.32-4.75-.78-9.63,1-14.35a5.15,5.15,0,0,0,.09-1.93c-.14-6.38.78-12.78.83-19.11,0-5,.6-10,.68-15,.09-5.17-.27-10.43.87-15.61a3.27,3.27,0,0,0,.13-1.29c-1.08-5.43.16-10.94.45-16.34.27-4.85-.73-9.82,1-14.68a8.42,8.42,0,0,0-.08-3.21c-.16-2.24-.59-4.46.57-6.7a2.5,2.5,0,0,0-.43-3.3c-1.21-.89-1.8.66-2.71,1a76,76,0,0,1-8.1,3.1c-13.63,3.62-26.74,8.46-39.81,13.49-3.64,1.4-7.26,3-11.34,3.63-5.8.9-8.61-2.39-10.09-6.85-1-3.16,2.91-7.65,7.16-8.58C402.35,301,403.69,300.84,405,300.64Z" transform="translate(-377.64 -219.11)"/><path class="cls-2" d="M844.57,403c-13.9,2.29-24.42-.35-33.34-8.3-5.29-4.71-12.26-6.88-20.08-6.45-14.06.77-25.69,6.54-36.67,14.22-9.43,6.59-18.45,13.73-28.63,19.39-6.66,3.71-13.63,7.13-21.67,7.59-5.69.32-11.28-.11-14.95-4.55-2-2.42-3.91-4.93-4.58-8.06a42.54,42.54,0,0,1,.58-20.65c.56-2,.66-4.21,1.37-6.29a1.9,1.9,0,0,0-.82-2.58c-1.07-.48-1.73.42-2.51.93q-24,15.59-48.07,31.16C622,428.05,609,437,595.55,445.26c-8.41,5.19-16.81,10.42-26,14.66a227.33,227.33,0,0,1-36.92,13.46c-6.58,1.75-13.47,2.56-20.08.44a14.26,14.26,0,0,1-8.76-7.43c-1.32-2.7-3-5.18-3.3-8.31-.44-4.63.74-9.08,1.45-13.61.65-4.13,1.85-8.14,2.86-12.2a108.81,108.81,0,0,1,5.13-14.51c2.86-7,6.34-13.92,8.57-21.15,1.45-4.71,4.41-6.93,9-6.51,4.88.45,8.37,4.11,8.24,8.43,0,1.57-1.27,2.6-2,3.74-6.09,8.91-11.84,18-15.82,27.75a83.36,83.36,0,0,0-5,17.32,33,33,0,0,0-.18,10.47c.9,6.28,5.61,9.16,12.57,8.22a75.62,75.62,0,0,0,24.66-8c15.9-8.18,30.67-17.89,45.82-27.08,14-8.5,27.78-17.35,41.47-26.31,12.7-8.31,25.7-16.25,37.92-25.14,4.18-3,8.31-6.13,11.15-10.34a5.1,5.1,0,0,1,3.66-2.51c1.71-.23,2.5-1.6,3.5-2.71,3.09-3.44,6.45-4.26,10.52-2.12,3.4,1.79,5.58,5.66,4.2,9.26-3.23,8.42-6.84,16.77-9.39,25.34-1.6,5.39-3.24,10.95-2.41,16.72.48,3.33,2.15,6,3.91,8.76,1,1.54,2.93,1.55,4.84,1.41,4.65-.35,8.16-2.88,11.7-5.18,11.23-7.3,22.27-14.82,33.72-21.86,8.07-5,16-10,24.78-14a31.18,31.18,0,0,1,18.62-2.56,74.38,74.38,0,0,1,29.56,12.14A13.16,13.16,0,0,0,832,394c10.71-.77,20.27-4.37,29.3-9.6,12.63-7.32,24.73-15.29,36.55-23.57,14.13-9.9,28-20.14,40.5-31.7,2-1.86,4.06-3.42,7.29-2.85,4.18.73,8.23,2,9.22,5.88.68,2.66-1.07,5.3-3.58,7.37s-6,2.8-8.87,4.55c-8.27,5.08-15.93,10.86-24,16.19s-16,10.71-24,16.07c-6.74,4.51-13.34,9.19-20.23,13.5C864.61,395.76,855.1,401.88,844.57,403Z" transform="translate(-377.64 -219.11)"/><path class="cls-3" d="M560.2,337.56c-6.15,1.33-10-2.2-10.75-7.17-.79-5.63,0-11.59,6.08-15.68,2.69-1.82,5.7-2.79,8.9-2,2.89.76,3.73,3,3.92,5.54a5.69,5.69,0,0,0,.78,2.76C573,326.64,567.71,336.4,560.2,337.56Z" transform="translate(-377.64 -219.11)"/><path class="cls-4" d="M983.27,385.64c1.56,5.14-2.45,6.58-8.45,7.69-5.07.94-8.39-1.48-9.23-6.28-.66-3.75,2.48-7.6,6.94-8C977.34,378.55,983.33,379.93,983.27,385.64Z" transform="translate(-377.64 -219.11)"/></g><g id="type"><text class="cls-5" transform="translate(114.64 304.58) scale(1.02 1)">P H O T O G R A P H Y &amp; D E S I G N</text></g></svg>